<mxfile host="app.diagrams.net" modified="2023-08-31T17:28:47.240Z" agent="Mozilla/5.0 (Windows NT 10.0; Win64; x64) AppleWebKit/537.36 (KHTML, like Gecko) Chrome/116.0.0.0 Safari/537.36" version="21.7.1" etag="hEx_Nresz6xt5neeP_uB" type="github">
  <diagram name="Page-1" id="og73DAF0mpAkBcqMTUm9">
    <mxGraphModel>
      <root>
        <mxCell id="0" />
        <mxCell id="1" parent="0" />
      </root>
    </mxGraphModel>
  </diagram>
</mxfile>
